<svg id="visual" viewBox="0 0 900 675" width="900" height="675" xmlns="http://www.w3.org/2000/svg" xmlns:xlink="http://www.w3.org/1999/xlink" version="1.1"><rect x="0" y="0" width="900" height="675" fill="#fff"></rect><path d="M269 0L269.5 18.8C270 37.7 271 75.3 267.3 112.8C263.7 150.3 255.3 187.7 250.2 225.2C245 262.7 243 300.3 235.5 337.8C228 375.3 215 412.7 218 450.2C221 487.7 240 525.3 247.2 562.8C254.3 600.3 249.7 637.7 247.3 656.3L245 675L0 675L0 656.3C0 637.7 0 600.3 0 562.8C0 525.3 0 487.7 0 450.2C0 412.7 0 375.3 0 337.8C0 300.3 0 262.7 0 225.2C0 187.7 0 150.3 0 112.8C0 75.3 0 37.7 0 18.8L0 0Z" fill="#42b86f"></path><path d="M203 0L195.5 18.8C188 37.7 173 75.3 162 112.8C151 150.3 144 187.7 142.2 225.2C140.3 262.7 143.7 300.3 149 337.8C154.3 375.3 161.7 412.7 162.8 450.2C164 487.7 159 525.3 158 562.8C157 600.3 160 637.7 161.5 656.3L163 675L0 675L0 656.3C0 637.7 0 600.3 0 562.8C0 525.3 0 487.7 0 450.2C0 412.7 0 375.3 0 337.8C0 300.3 0 262.7 0 225.2C0 187.7 0 150.3 0 112.8C0 75.3 0 37.7 0 18.8L0 0Z" fill="#2ba94e"></path><path d="M126 0L125.2 18.8C124.3 37.7 122.7 75.3 114.3 112.8C106 150.3 91 187.7 84.3 225.2C77.7 262.7 79.3 300.3 87.5 337.8C95.7 375.3 110.3 412.7 109.2 450.2C108 487.7 91 525.3 84.7 562.8C78.3 600.3 82.7 637.7 84.8 656.3L87 675L0 675L0 656.3C0 637.7 0 600.3 0 562.8C0 525.3 0 487.7 0 450.2C0 412.7 0 375.3 0 337.8C0 300.3 0 262.7 0 225.2C0 187.7 0 150.3 0 112.8C0 75.3 0 37.7 0 18.8L0 0Z" fill="#109929"></path></svg>